<svg fill="none" height="280" viewBox="0 0 280 280" width="280" xmlns="http://www.w3.org/2000/svg" xmlns:xlink="http://www.w3.org/1999/xlink"><linearGradient id="a"><stop offset="0" stop-color="#faf9fd"/><stop offset=".998468" stop-color="#f1f0f9"/><stop offset="1" stop-color="#f1f0f9"/></linearGradient><linearGradient id="b" gradientUnits="userSpaceOnUse" x1="221.403" x2="157.333" xlink:href="#a" y1="58.267" y2="170.182"/><linearGradient id="c" gradientUnits="userSpaceOnUse" x1="221.404" x2="157.333" xlink:href="#a" y1="58.267" y2="170.182"/><linearGradient id="d" gradientUnits="userSpaceOnUse" x1="221.404" x2="157.334" xlink:href="#a" y1="58.267" y2="170.182"/><linearGradient id="e"><stop offset="0" stop-color="#faf9fd"/><stop offset="1" stop-color="#fff"/></linearGradient><linearGradient id="f" gradientUnits="userSpaceOnUse" x1="341.944" x2="81.3602" xlink:href="#e" y1="-94.325" y2="357.03"/><linearGradient id="g" gradientUnits="userSpaceOnUse" x1="221.404" x2="157.333" xlink:href="#a" y1="58.267" y2="170.181"/><linearGradient id="h" gradientUnits="userSpaceOnUse" x1="221.403" x2="157.334" xlink:href="#a" y1="58.2675" y2="170.183"/><linearGradient id="i" gradientUnits="userSpaceOnUse" x1="221.404" x2="157.334" xlink:href="#a" y1="58.2675" y2="170.182"/><linearGradient id="j" gradientUnits="userSpaceOnUse" x1="221.404" x2="157.335" xlink:href="#a" y1="58.2675" y2="170.183"/><linearGradient id="k" gradientUnits="userSpaceOnUse" x1="138.268" x2="134.588" xlink:href="#a" y1="77.4423" y2="226.122"/><linearGradient id="l" gradientUnits="userSpaceOnUse" x1="138.267" x2="134.587" xlink:href="#a" y1="77.4423" y2="226.122"/><linearGradient id="m" gradientUnits="userSpaceOnUse" x1="341.941" x2="81.3728" xlink:href="#e" y1="-94.314" y2="357.026"/><linearGradient id="n" gradientUnits="userSpaceOnUse" x1="221.403" x2="157.333" xlink:href="#a" y1="58.2669" y2="170.182"/><linearGradient id="o" gradientUnits="userSpaceOnUse" x1="221.404" x2="157.333" xlink:href="#a" y1="58.2669" y2="170.182"/><linearGradient id="p" gradientUnits="userSpaceOnUse" x1="138.267" x2="134.587" xlink:href="#a" y1="77.4418" y2="226.122"/><linearGradient id="q" gradientUnits="userSpaceOnUse" x1="138.268" x2="134.588" xlink:href="#a" y1="77.4418" y2="226.122"/><linearGradient id="r" gradientUnits="userSpaceOnUse" x1="341.939" x2="81.3561" xlink:href="#e" y1="-94.3207" y2="357.019"/><linearGradient id="s" gradientUnits="userSpaceOnUse" x1="221.404" x2="157.334" xlink:href="#a" y1="58.2672" y2="170.182"/><linearGradient id="t" gradientUnits="userSpaceOnUse" x1="138.267" x2="134.587" xlink:href="#a" y1="77.4419" y2="226.122"/><linearGradient id="u" gradientUnits="userSpaceOnUse" x1="341.939" x2="81.3574" xlink:href="#e" y1="-94.3202" y2="357.02"/><linearGradient id="v" gradientUnits="userSpaceOnUse" x1="341.939" x2="81.3552" xlink:href="#e" y1="-94.3216" y2="357.02"/><linearGradient id="w" gradientUnits="userSpaceOnUse" x1="341.94" x2="81.3578" xlink:href="#e" y1="-94.3215" y2="357.022"/><linearGradient id="x" gradientUnits="userSpaceOnUse" x1="138.268" x2="134.588" xlink:href="#a" y1="77.4419" y2="226.122"/><linearGradient id="y" gradientUnits="userSpaceOnUse" x1="341.939" x2="81.3554" xlink:href="#e" y1="-94.3215" y2="357.02"/><linearGradient id="z" gradientUnits="userSpaceOnUse" x1="341.94" x2="81.3571" xlink:href="#e" y1="-94.3219" y2="357.022"/><linearGradient id="A" gradientUnits="userSpaceOnUse" x1="341.938" x2="81.353" xlink:href="#e" y1="-94.3213" y2="357.017"/><linearGradient id="B" gradientUnits="userSpaceOnUse" x1="138.267" x2="134.587" xlink:href="#a" y1="77.4417" y2="226.122"/><linearGradient id="C" gradientUnits="userSpaceOnUse" x1="138.268" x2="134.588" xlink:href="#a" y1="77.4417" y2="226.122"/><linearGradient id="D" gradientUnits="userSpaceOnUse" x1="341.939" x2="81.3548" xlink:href="#e" y1="-94.322" y2="357.02"/><linearGradient id="E" gradientUnits="userSpaceOnUse" x1="341.94" x2="81.3589" xlink:href="#e" y1="-94.3206" y2="357.022"/><linearGradient id="F" gradientUnits="userSpaceOnUse" x1="341.939" x2="81.3563" xlink:href="#e" y1="-94.3206" y2="357.02"/><linearGradient id="G" gradientUnits="userSpaceOnUse" x1="138.267" x2="134.587" xlink:href="#a" y1="77.4422" y2="226.122"/><linearGradient id="H" gradientUnits="userSpaceOnUse" x1="138.268" x2="134.588" xlink:href="#a" y1="77.4422" y2="226.122"/><linearGradient id="I" gradientUnits="userSpaceOnUse" x1="341.939" x2="81.3566" xlink:href="#e" y1="-94.3206" y2="357.02"/><linearGradient id="J" gradientUnits="userSpaceOnUse" x1="341.94" x2="81.3577" xlink:href="#e" y1="-94.3215" y2="357.022"/><linearGradient id="K" gradientUnits="userSpaceOnUse" x1="341.939" x2="81.3551" xlink:href="#e" y1="-94.3215" y2="357.02"/><linearGradient id="L" gradientUnits="userSpaceOnUse" x1="341.941" x2="81.3594" xlink:href="#e" y1="-94.3215" y2="357.024"/><linearGradient id="M" gradientUnits="userSpaceOnUse" x1="138.267" x2="134.587" xlink:href="#a" y1="77.4415" y2="226.122"/><linearGradient id="N" gradientUnits="userSpaceOnUse" x1="341.939" x2="81.3553" xlink:href="#e" y1="-94.3215" y2="357.02"/><linearGradient id="O" gradientUnits="userSpaceOnUse" x1="221.403" x2="157.334" xlink:href="#a" y1="58.2674" y2="170.183"/><linearGradient id="P" gradientUnits="userSpaceOnUse" x1="221.404" x2="157.334" xlink:href="#a" y1="58.2674" y2="170.182"/><linearGradient id="Q" gradientUnits="userSpaceOnUse" x1="221.404" x2="157.335" xlink:href="#a" y1="58.2674" y2="170.183"/><linearGradient id="R" gradientUnits="userSpaceOnUse" x1="341.94" x2="81.3588" xlink:href="#e" y1="-94.3204" y2="357.021"/><linearGradient id="S" gradientUnits="userSpaceOnUse" x1="221.404" x2="157.334" xlink:href="#a" y1="58.2673" y2="170.181"/><linearGradient id="T" gradientUnits="userSpaceOnUse" x1="341.939" x2="81.3554" xlink:href="#e" y1="-94.3213" y2="357.02"/><linearGradient id="U" gradientUnits="userSpaceOnUse" x1="142.888" x2="142.888" xlink:href="#a" y1="245.364" y2="224.304"/><linearGradient id="V" gradientUnits="userSpaceOnUse" x1="341.941" x2="81.3586" xlink:href="#e" y1="-94.3216" y2="357.022"/><linearGradient id="W" gradientUnits="userSpaceOnUse" x1="142.891" x2="142.891" xlink:href="#a" y1="245.363" y2="224.304"/><linearGradient id="X" gradientUnits="userSpaceOnUse" x1="341.939" x2="81.3559" xlink:href="#e" y1="-94.3215" y2="357.021"/><linearGradient id="Y" gradientUnits="userSpaceOnUse" x1="341.94" x2="81.357" xlink:href="#e" y1="-94.3215" y2="357.021"/><linearGradient id="Z" gradientUnits="userSpaceOnUse" x1="341.939" x2="81.3557" xlink:href="#e" y1="-94.3215" y2="357.02"/><linearGradient id="aa" gradientUnits="userSpaceOnUse" x1="341.939" x2="81.3558" xlink:href="#e" y1="-94.3215" y2="357.021"/><linearGradient id="ab" gradientUnits="userSpaceOnUse" x1="341.94" x2="81.3572" xlink:href="#e" y1="-94.3215" y2="357.021"/><linearGradient id="ac" gradientUnits="userSpaceOnUse" x1="341.94" x2="81.3569" xlink:href="#e" y1="-94.3215" y2="357.021"/><linearGradient id="ad" gradientUnits="userSpaceOnUse" x1="341.939" x2="81.3571" xlink:href="#e" y1="-94.3206" y2="357.021"/><linearGradient id="ae" gradientUnits="userSpaceOnUse" x1="341.94" x2="81.3582" xlink:href="#e" y1="-94.3206" y2="357.021"/><linearGradient id="af" gradientUnits="userSpaceOnUse" x1="341.939" x2="81.3569" xlink:href="#e" y1="-94.3206" y2="357.02"/><linearGradient id="ag" gradientUnits="userSpaceOnUse" x1="341.939" x2="81.357" xlink:href="#e" y1="-94.3206" y2="357.021"/><linearGradient id="ah" gradientUnits="userSpaceOnUse" x1="341.94" x2="81.3584" xlink:href="#e" y1="-94.3206" y2="357.021"/><linearGradient id="ai" gradientUnits="userSpaceOnUse" x1="341.94" x2="81.3581" xlink:href="#e" y1="-94.3206" y2="357.021"/><linearGradient id="aj" gradientUnits="userSpaceOnUse" x1="341.939" x2="81.3553" xlink:href="#e" y1="-94.322" y2="357.021"/><linearGradient id="ak" gradientUnits="userSpaceOnUse" x1="341.94" x2="81.3564" xlink:href="#e" y1="-94.322" y2="357.021"/><linearGradient id="al" gradientUnits="userSpaceOnUse" x1="341.939" x2="81.3551" xlink:href="#e" y1="-94.322" y2="357.02"/><linearGradient id="am" gradientUnits="userSpaceOnUse" x1="341.939" x2="81.3552" xlink:href="#e" y1="-94.322" y2="357.021"/><linearGradient id="an" gradientUnits="userSpaceOnUse" x1="341.94" x2="81.3566" xlink:href="#e" y1="-94.3219" y2="357.021"/><linearGradient id="ao" gradientUnits="userSpaceOnUse" x1="341.94" x2="81.3563" xlink:href="#e" y1="-94.322" y2="357.021"/><linearGradient id="ap" gradientUnits="userSpaceOnUse" x1="341.939" x2="81.356" xlink:href="#e" y1="-94.3215" y2="357.021"/><linearGradient id="aq" gradientUnits="userSpaceOnUse" x1="341.94" x2="81.3571" xlink:href="#e" y1="-94.3215" y2="357.021"/><linearGradient id="ar" gradientUnits="userSpaceOnUse" x1="341.94" x2="81.3573" xlink:href="#e" y1="-94.3215" y2="357.021"/><linearGradient id="as" gradientUnits="userSpaceOnUse" x1="341.939" x2="81.3557" xlink:href="#e" y1="-94.3217" y2="357.021"/><linearGradient id="at" gradientUnits="userSpaceOnUse" x1="341.94" x2="81.3569" xlink:href="#e" y1="-94.3216" y2="357.021"/><linearGradient id="au" gradientUnits="userSpaceOnUse" x1="341.939" x2="81.3556" xlink:href="#e" y1="-94.3216" y2="357.02"/><linearGradient id="av" gradientUnits="userSpaceOnUse" x1="341.939" x2="81.3557" xlink:href="#e" y1="-94.3216" y2="357.021"/><linearGradient id="aw" gradientUnits="userSpaceOnUse" x1="191.581" x2="76.7488" xlink:href="#a" y1="236.678" y2="111.404"/><linearGradient id="ax" gradientUnits="userSpaceOnUse" x1="341.94" x2="81.3568" xlink:href="#e" y1="-94.3216" y2="357.021"/><linearGradient id="ay" gradientUnits="userSpaceOnUse" x1="341.939" x2="81.3579" xlink:href="#e" y1="-94.3202" y2="357.021"/><linearGradient id="az" gradientUnits="userSpaceOnUse" x1="341.94" x2="81.359" xlink:href="#e" y1="-94.3202" y2="357.021"/><linearGradient id="aA" gradientUnits="userSpaceOnUse" x1="341.939" x2="81.3577" xlink:href="#e" y1="-94.3202" y2="357.02"/><linearGradient id="aB" gradientUnits="userSpaceOnUse" x1="191.58" x2="76.7485" xlink:href="#a" y1="236.678" y2="111.404"/><linearGradient id="aC" gradientUnits="userSpaceOnUse" x1="191.581" x2="76.7495" xlink:href="#a" y1="236.678" y2="111.404"/><linearGradient id="aD" gradientUnits="userSpaceOnUse" x1="341.94" x2="81.3589" xlink:href="#e" y1="-94.3202" y2="357.021"/><linearGradient id="aE" gradientUnits="userSpaceOnUse" x1="191.581" x2="76.748" xlink:href="#a" y1="236.678" y2="111.404"/><linearGradient id="aF" gradientUnits="userSpaceOnUse" x1="191.58" x2="76.7477" xlink:href="#a" y1="236.678" y2="111.404"/><linearGradient id="aG" gradientUnits="userSpaceOnUse" x1="341.94" x2="81.3567" xlink:href="#e" y1="-94.3216" y2="357.021"/><linearGradient id="aH" gradientUnits="userSpaceOnUse" x1="341.939" x2="81.3585" xlink:href="#e" y1="-94.3202" y2="357.021"/><linearGradient id="aI" gradientUnits="userSpaceOnUse" x1="191.583" x2="76.7486" xlink:href="#a" y1="236.68" y2="111.404"/><linearGradient id="aJ" gradientUnits="userSpaceOnUse" x1="191.581" x2="76.7487" xlink:href="#a" y1="236.678" y2="111.404"/><linearGradient id="aK" gradientUnits="userSpaceOnUse" x1="341.939" x2="81.3558" xlink:href="#e" y1="-94.3216" y2="357.021"/><linearGradient id="aL" gradientUnits="userSpaceOnUse" x1="191.581" x2="76.7481" xlink:href="#a" y1="236.678" y2="111.404"/><linearGradient id="aM" gradientUnits="userSpaceOnUse" x1="341.94" x2="81.3573" xlink:href="#e" y1="-94.3216" y2="357.021"/><linearGradient id="aN" gradientUnits="userSpaceOnUse" x1="341.94" x2="81.357" xlink:href="#e" y1="-94.3216" y2="357.021"/><linearGradient id="aO" gradientUnits="userSpaceOnUse" x1="191.581" x2="76.7488" xlink:href="#a" y1="236.678" y2="111.403"/><linearGradient id="aP" gradientUnits="userSpaceOnUse" x1="191.58" x2="76.7484" xlink:href="#a" y1="236.678" y2="111.404"/><clipPath id="aQ"><path d="m0 0h280v280h-280z"/></clipPath><g clip-path="url(#aQ)"><path d="m142.891 235.232c-65.1558 0-117.974-2.896-117.974-6.466 0-1.256 6.5206-2.427 17.8036-3.419.4983 1.159 1.0267 2.298 1.5881 3.419h176.4423c.914-1.528 1.838-3.104 2.756-4.722 1.444.074 2.858.15 4.233.229l.599.598.534-.534c2.015.118 3.951.239 5.802.365l.169.169.148-.147c16.188 1.107 25.873 2.512 25.873 4.042 0 3.57-52.818 6.466-117.974 6.466z" fill="#fed488"/><path d="m35.1918 187.111c-7.8552-10.96-14.746-24.036-20.0503-37.226l.0819-.082-.1921-.192c-13.80513-34.479-16.74899-69.6236 2.2813-69.6236 2.6944 0 5.8339.7064 9.4406 2.2183 10.9156 4.5757 19.73 6.4383 27.0368 6.4383 16.0201 0 24.7862-8.9582 32.5248-17.9144 7.7397-8.9582 14.4502-17.9144 26.3652-17.9144 4.484 0 9.705 1.2686 15.993 4.2823 15.138 7.2562 27.698 17.5454 37.122 29.551-15.228 14.0655-34.088 18.3915-49.6 23.9255-12.288-11.2083-27.3562-19.0318-41.1794-19.0318-21.6712 0-40.2767 19.2358-40.2767 74.8208 0 7.115.0911 14.055.4529 20.748zm-1.5594-10.679-1.1065 1.106 1.1065 1.107 1.1065-1.107zm0-9.245-1.1065 1.106 1.1065 1.107 1.1065-1.107zm-6.5055 0-1.1061 1.106 1.1061 1.107 1.1065-1.107zm6.5055-9.246-1.1065 1.106 1.1065 1.107 1.1065-1.107zm-6.5055 0-1.1061 1.106 1.1061 1.107 1.1065-1.107zm-6.505 0-1.1066 1.106 1.1066 1.107 1.1065-1.107zm13.0105-9.245-1.1065 1.107 1.1065 1.106 1.1065-1.106zm-6.5055 0-1.1061 1.107 1.1061 1.106 1.1065-1.106zm-6.505 0-1.1066 1.107 1.1066 1.106 1.1065-1.106zm13.0105-9.246-1.1065 1.107 1.1065 1.106 1.1065-1.106zm-6.5055 0-1.1061 1.107 1.1061 1.106 1.1065-1.106zm-6.505 0-1.1066 1.107 1.1066 1.106 1.1065-1.106zm-6.5051 0-1.1065 1.107 1.1065 1.106 1.1066-1.106zm19.5156-9.245-1.1065 1.107 1.1065 1.106 1.1065-1.106zm-6.5055 0-1.1061 1.107 1.1061 1.106 1.1065-1.106zm-6.505 0-1.1066 1.107 1.1066 1.106 1.1065-1.106zm-6.5051 0-1.1065 1.107 1.1065 1.106 1.1066-1.106z" fill="#fff7e8"/><path d="m236.451 190.27c1.032-6.991.835-14.14-1.257-21.22l.757-.757-1.107-1.106-.183.183c-.114-.337-.232-.672-.355-1.007-6.617-18.072-16.414-23.112-27.555-23.112-7.031 0-14.598 2.009-22.234 4.017s-15.341 4.017-22.657 4.017c-10.33 0-19.88-4.009-27.337-17.685-4.503-8.257-10.908-16.259-18.328-23.026 15.512-5.534 34.372-9.86 49.6-23.9255.643-.5939 1.278-1.2042 1.907-1.8339 12.529-12.5281 23.877-17.6906 33.858-17.6906 25.146 0 41.58 32.809 46.122 63.255l-.934.933 1.107 1.106.1-.1c.361 2.708.625 5.391.793 8.026l-.893-.894-1.107 1.107 1.107 1.106.918-.917c.125 2.096.189 4.163.189 6.182 0 .946-.017 1.889-.048 2.827l-1.059-1.059-1.107 1.107 1.107 1.106 1.055-1.055c-.101 2.841-.348 5.65-.732 8.409l-.323-.322-1.107 1.106 1.107 1.107.043-.042c-1.785 10.939-5.756 21.148-11.447 30.158zm4.899-13.838-1.106 1.106 1.106 1.107 1.106-1.107zm0-9.245-1.106 1.106 1.106 1.107 1.106-1.107zm0-9.246-1.106 1.106 1.106 1.107 1.106-1.107zm-6.506 0-1.106 1.106 1.106 1.107 1.107-1.107zm6.506-9.245-1.106 1.107 1.106 1.106 1.106-1.106zm-6.506 0-1.106 1.107 1.106 1.106 1.107-1.106zm-6.505 0-1.106 1.107 1.106 1.106 1.107-1.106zm13.011-9.246-1.106 1.107 1.106 1.106 1.106-1.106zm-6.506 0-1.106 1.107 1.106 1.106 1.107-1.106zm-6.505 0-1.106 1.107 1.106 1.106 1.107-1.106zm-6.504 0-1.108 1.107 1.108 1.106 1.106-1.106zm-6.506 0-1.106 1.107 1.106 1.106 1.107-1.106zm26.021-9.245-1.106 1.107 1.106 1.106 1.106-1.106zm-6.506 0-1.106 1.107 1.106 1.106 1.107-1.106zm-6.505 0-1.106 1.107 1.106 1.106 1.107-1.106zm-6.504 0-1.108 1.107 1.108 1.106 1.106-1.106zm-6.506 0-1.106 1.107 1.106 1.106 1.107-1.106z" fill="#fed488" fill-opacity=".34"/><path d="m220.751 228.766h-176.4423c-.5614-1.121-1.0897-2.26-1.5881-3.419-4.8139-11.195-6.7686-24.17-7.5285-38.236-.3618-6.693-.4528-13.633-.4528-20.748 0-55.585 18.6054-74.8208 40.2766-74.8208 13.8233 0 28.8921 7.8235 41.1791 19.0318 7.42 6.767 13.825 14.769 18.328 23.026 7.457 13.676 17.007 17.685 27.338 17.685 7.315 0 15.02-2.009 22.656-4.017s15.203-4.017 22.234-4.017c11.141 0 20.938 5.04 27.555 23.112.123.335.241.67.355 1.007l-.923.923 1.106 1.107.35-.35c2.092 7.08 2.289 14.229 1.257 21.22-.261 1.763-.599 3.515-1.004 5.255l-.603-.603-1.106 1.107 1.106 1.106.278-.278c-1.494 5.896-3.736 11.621-6.302 17.036l-.481-.481-1.106 1.106.867.868c-1.467 2.996-3.022 5.89-4.593 8.658-.918 1.618-1.842 3.194-2.756 4.722zm1.084-6.108-1.108 1.106 1.108 1.107 1.106-1.107zm-6.506 0-1.106 1.106 1.106 1.107 1.107-1.107zm6.506-9.246-1.108 1.106 1.108 1.107 1.106-1.107zm-6.506 0-1.106 1.106 1.106 1.107 1.107-1.107zm13.01-9.245-1.106 1.108 1.106 1.105 1.107-1.105zm-6.504 0-1.108 1.108 1.108 1.105 1.106-1.105zm-6.506 0-1.106 1.108 1.106 1.105 1.107-1.105zm13.01-9.245-1.106 1.107 1.106 1.106 1.107-1.106zm-6.504 0-1.108 1.107 1.108 1.106 1.106-1.106zm-6.506 0-1.106 1.107 1.106 1.106 1.107-1.106zm19.515-9.245-1.106 1.107 1.106 1.106 1.107-1.106zm-6.505 0-1.106 1.107 1.106 1.106 1.107-1.106zm-6.504 0-1.108 1.107 1.108 1.106 1.106-1.106zm-6.506 0-1.106 1.107 1.106 1.106 1.107-1.106zm19.515-9.245-1.106 1.106 1.106 1.107 1.107-1.107zm-6.505 0-1.106 1.106 1.106 1.107 1.107-1.107zm-6.504 0-1.108 1.106 1.108 1.107 1.106-1.107zm-6.506 0-1.106 1.106 1.106 1.107 1.107-1.107zm13.01-9.245-1.106 1.106 1.106 1.107 1.107-1.107zm-6.504 0-1.108 1.106 1.108 1.107 1.106-1.107zm-6.506 0-1.106 1.106 1.106 1.107 1.107-1.107zm13.01-9.246-1.106 1.106 1.106 1.108 1.107-1.108zm-6.504 0-1.108 1.106 1.108 1.108 1.106-1.108zm-6.506 0-1.106 1.106 1.106 1.108 1.107-1.108zm6.506-9.245-1.108 1.107 1.108 1.106 1.106-1.106zm-6.506 0-1.106 1.107 1.106 1.106 1.107-1.106z" fill="#fed488" fill-opacity=".47"/><path d="m50.0586 82.3071c-5.9416-4.5799-3.9178-17.1672 4.5204-28.1117 8.438-10.9455 20.095-16.105 26.0365-11.5241 5.9425 4.5798 3.9184 17.1671-4.5205 28.1126-8.4379 10.9445-20.0948 16.105-26.0364 11.5232z" fill="#ffebc7"/><path d="m241.349 141.664-1.106-1.107 1.106-1.107 1.106 1.107z" fill="url(#b)"/><path d="m234.843 141.664-1.106-1.107 1.106-1.107 1.108 1.107z" fill="url(#c)"/><path d="m228.34 141.664-1.107-1.107 1.107-1.107 1.107 1.107z" fill="url(#d)"/><path d="m221.835 141.664-1.107-1.107 1.107-1.107 1.106 1.107z" fill="url(#d)"/><path d="m215.329 141.664-1.106-1.107 1.106-1.107 1.107 1.107z" fill="url(#d)"/><path d="m248.773 140.747c-.009-.137-.017-.267-.025-.403l.214.213z" fill="url(#f)"/><path d="m247.854 141.664-1.106-1.107 1.106-1.107.894.894c.008.136.016.266.024.403z" fill="url(#g)"/><path d="m241.349 150.909-1.106-1.106 1.106-1.107 1.106 1.107z" fill="url(#h)"/><path d="m234.843 150.909-1.106-1.106 1.106-1.107 1.108 1.107z" fill="url(#i)"/><path d="m228.34 150.909-1.107-1.106 1.107-1.107 1.107 1.107z" fill="url(#j)"/><path d="m221.835 150.909-1.107-1.106 1.107-1.107 1.106 1.107z" fill="url(#k)"/><path d="m215.329 150.909-1.106-1.106 1.106-1.107 1.107 1.107z" fill="url(#l)"/><path d="m248.909 149.854c.002-.035.003-.064.004-.099l.048.048z" fill="url(#m)"/><path d="m247.854 150.909-1.106-1.106 1.106-1.107 1.059 1.059c-.001.035-.002.064-.004.099z" fill="url(#i)"/><path d="m241.349 160.154-1.106-1.107 1.106-1.106 1.106 1.106z" fill="url(#n)"/><path d="m234.843 160.154-1.106-1.107 1.106-1.106 1.108 1.106z" fill="url(#o)"/><path d="m228.34 160.154-1.107-1.107 1.107-1.106 1.107 1.106z" fill="url(#p)"/><path d="m221.835 160.154-1.107-1.107 1.107-1.106 1.106 1.106z" fill="url(#q)"/><path d="m215.329 160.154-1.106-1.107 1.106-1.106 1.107 1.106z" fill="url(#p)"/><path d="m247.897 160.112c.101-.616.194-1.229.281-1.849l.784.784z" fill="url(#r)"/><path d="m247.854 160.154-1.106-1.107 1.106-1.106.323.322c-.087.62-.18 1.233-.28 1.849z" fill="url(#o)"/><path d="m241.349 169.4-1.106-1.107 1.106-1.106 1.106 1.106z" fill="url(#h)"/><path d="m235.194 169.05c-.166-.561-.343-1.12-.533-1.68l.183-.183 1.107 1.106z" fill="url(#s)"/><path d="m234.843 169.4-1.106-1.107.923-.923c.191.56.367 1.119.533 1.68z" fill="url(#t)"/><path d="m228.34 169.4-1.107-1.107 1.107-1.106 1.107 1.106z" fill="url(#l)"/><path d="m221.835 169.4-1.107-1.107 1.107-1.106 1.106 1.106z" fill="url(#k)"/><path d="m215.329 169.4-1.106-1.107 1.106-1.106 1.107 1.106z" fill="url(#l)"/><path d="m247.854 169.4-1.106-1.107 1.106-1.106 1.107 1.106z" fill="url(#u)"/><path d="m241.349 178.645-1.106-1.107 1.106-1.106 1.106 1.106z" fill="url(#n)"/><path d="m234.843 178.645-1.106-1.107 1.106-1.106 1.108 1.106z" fill="url(#p)"/><path d="m228.34 178.645-1.107-1.107 1.107-1.106 1.107 1.106z" fill="url(#p)"/><path d="m221.835 178.645-1.107-1.107 1.107-1.106 1.106 1.106z" fill="url(#q)"/><path d="m215.329 178.645-1.106-1.107 1.106-1.106 1.107 1.106z" fill="url(#p)"/><path d="m247.854 178.645-1.106-1.107 1.106-1.106 1.107 1.106z" fill="url(#v)"/><path d="m241.349 187.89-1.106-1.106 1.106-1.107 1.106 1.107z" fill="url(#w)"/><path d="m234.843 187.89-1.106-1.106 1.106-1.107 1.108 1.107z" fill="url(#t)"/><path d="m228.34 187.89-1.107-1.106 1.107-1.107 1.107 1.107z" fill="url(#t)"/><path d="m221.835 187.89-1.107-1.106 1.107-1.107 1.106 1.107z" fill="url(#x)"/><path d="m215.329 187.89-1.106-1.106 1.106-1.107 1.107 1.107z" fill="url(#t)"/><path d="m247.854 187.89-1.106-1.106 1.106-1.107 1.107 1.107z" fill="url(#y)"/><path d="m241.349 197.135-1.106-1.106 1.106-1.107 1.106 1.107z" fill="url(#z)"/><path d="m235.122 196.857c.113-.442.221-.888.325-1.332l.504.504z" fill="url(#A)"/><path d="m234.843 197.135-1.106-1.106 1.106-1.107.604.603c-.105.444-.213.89-.326 1.332z" fill="url(#B)"/><path d="m228.34 197.135-1.107-1.106 1.107-1.107 1.107 1.107z" fill="url(#B)"/><path d="m221.835 197.135-1.107-1.106 1.107-1.107 1.106 1.107z" fill="url(#C)"/><path d="m215.329 197.135-1.106-1.106 1.106-1.107 1.107 1.107z" fill="url(#B)"/><path d="m247.854 197.135-1.106-1.106 1.106-1.107 1.107 1.107z" fill="url(#D)"/><path d="m241.349 206.38-1.106-1.105 1.106-1.108 1.106 1.108z" fill="url(#E)"/><path d="m234.843 206.38-1.106-1.105 1.106-1.108 1.108 1.108z" fill="url(#F)"/><path d="m228.34 206.38-1.107-1.105 1.107-1.108 1.107 1.108z" fill="url(#G)"/><path d="m221.835 206.38-1.107-1.105 1.107-1.108 1.106 1.108z" fill="url(#H)"/><path d="m215.329 206.38-1.106-1.105 1.106-1.108 1.107 1.108z" fill="url(#G)"/><path d="m247.854 206.38-1.106-1.105 1.106-1.108 1.107 1.108z" fill="url(#I)"/><path d="m241.349 215.625-1.106-1.107 1.106-1.106 1.106 1.106z" fill="url(#J)"/><path d="m234.843 215.625-1.106-1.107 1.106-1.106 1.108 1.106z" fill="url(#K)"/><path d="m228.339 215.625-.239-.239c.242-.494.482-.994.719-1.493l.627.625z" fill="url(#L)"/><path d="m228.1 215.386-.867-.868 1.107-1.106.48.481c-.237.499-.477.999-.72 1.493z" fill="url(#M)"/><path d="m221.835 215.625-1.107-1.107 1.107-1.106 1.106 1.106z" fill="url(#q)"/><path d="m215.329 215.625-1.106-1.107 1.106-1.106 1.107 1.106z" fill="url(#p)"/><path d="m247.854 215.625-1.106-1.107 1.106-1.106 1.107 1.106z" fill="url(#N)"/><path d="m241.349 132.418-1.106-1.106 1.106-1.107 1.106 1.107z" fill="url(#O)"/><path d="m234.843 132.418-1.106-1.106 1.106-1.107 1.108 1.107z" fill="url(#P)"/><path d="m228.34 132.418-1.107-1.106 1.107-1.107 1.107 1.107z" fill="url(#Q)"/><path d="m221.835 132.418-1.107-1.106 1.107-1.107 1.106 1.107z" fill="url(#P)"/><path d="m215.329 132.418-1.106-1.106 1.106-1.107 1.107 1.107z" fill="url(#Q)"/><path d="m247.955 132.318c-.086-.645-.177-1.292-.273-1.939l.172-.174 1.108 1.107z" fill="url(#R)"/><path d="m247.854 132.418-1.106-1.106.933-.933c.096.647.187 1.294.273 1.939z" fill="url(#S)"/><path d="m241.349 224.871-1.106-1.107 1.106-1.106 1.106 1.106z" fill="url(#w)"/><path d="m234.992 224.724c-.107-.008-.21-.015-.317-.022l-.938-.938 1.106-1.106 1.108 1.106z" fill="url(#T)"/><path d="m234.843 224.871-.168-.169c.107.007.21.014.317.022z" fill="url(#U)"/><path d="m228.873 224.337c-.376-.021-.75-.043-1.133-.064l-.507-.509 1.107-1.106 1.107 1.106z" fill="url(#V)"/><path d="m228.339 224.871-.599-.598c.383.021.757.043 1.133.064z" fill="url(#W)"/><path d="m221.835 224.871-1.107-1.107 1.107-1.106 1.106 1.106z" fill="url(#q)"/><path d="m215.329 224.871-1.106-1.107 1.106-1.106 1.107 1.106z" fill="url(#p)"/><path d="m247.854 224.871-1.106-1.107 1.106-1.106 1.107 1.106z" fill="url(#y)"/><path d="m7.6115 215.625-1.10662-1.107 1.10662-1.106 1.1061 1.106z" fill="url(#X)"/><path d="m14.1163 215.625-1.1065-1.107 1.1065-1.106 1.1066 1.106z" fill="url(#Y)"/><path d="m20.6221 215.625-1.1065-1.107 1.1065-1.106 1.1065 1.106z" fill="url(#Z)"/><path d="m27.1266 215.625-1.1061-1.107 1.1061-1.106 1.1065 1.106z" fill="url(#aa)"/><path d="m33.6329 215.625-1.1065-1.107 1.1065-1.106 1.1065 1.106z" fill="url(#ab)"/><path d="m1.10651 215.625-1.10651-1.107 1.10651-1.106 1.10652 1.106z" fill="url(#ac)"/><path d="m7.6115 206.38-1.10662-1.105 1.10662-1.108 1.1061 1.108z" fill="url(#ad)"/><path d="m14.1163 206.38-1.1065-1.105 1.1065-1.108 1.1066 1.108z" fill="url(#ae)"/><path d="m20.6221 206.38-1.1065-1.105 1.1065-1.108 1.1065 1.108z" fill="url(#af)"/><path d="m27.1266 206.38-1.1061-1.105 1.1061-1.108 1.1065 1.108z" fill="url(#ag)"/><path d="m33.6329 206.38-1.1065-1.105 1.1065-1.108 1.1065 1.108z" fill="url(#ah)"/><path d="m1.10651 206.38-1.10651-1.105 1.10651-1.108 1.10652 1.108z" fill="url(#ai)"/><path d="m7.6115 197.135-1.10662-1.106 1.10662-1.107 1.1061 1.107z" fill="url(#aj)"/><path d="m14.1163 197.135-1.1065-1.106 1.1065-1.107 1.1066 1.107z" fill="url(#ak)"/><path d="m20.6221 197.135-1.1065-1.106 1.1065-1.107 1.1065 1.107z" fill="url(#al)"/><path d="m27.1266 197.135-1.1061-1.106 1.1061-1.107 1.1065 1.107z" fill="url(#am)"/><path d="m33.6329 197.135-1.1065-1.106 1.1065-1.107 1.1065 1.107z" fill="url(#an)"/><path d="m1.10651 197.135-1.10651-1.106 1.10651-1.107 1.10652 1.107z" fill="url(#ao)"/><path d="m7.6115 187.89-1.10662-1.106 1.10662-1.107 1.1061 1.107z" fill="url(#ap)"/><path d="m14.1163 187.89-1.1065-1.106 1.1065-1.107 1.1066 1.107z" fill="url(#aq)"/><path d="m20.6221 187.89-1.1065-1.106 1.1065-1.107 1.1065 1.107z" fill="url(#Z)"/><path d="m27.1266 187.89-1.1061-1.106 1.1061-1.107 1.1065 1.107z" fill="url(#X)"/><path d="m33.6329 187.89-1.1065-1.106 1.1065-1.107 1.1065 1.107z" fill="url(#ar)"/><path d="m1.10651 187.89-1.10651-1.106 1.10651-1.107 1.10652 1.107z" fill="url(#Y)"/><path d="m7.6115 178.645-1.10662-1.107 1.10662-1.106 1.1061 1.106z" fill="url(#as)"/><path d="m14.1163 178.645-1.1065-1.107 1.1065-1.106 1.1066 1.106z" fill="url(#at)"/><path d="m20.6221 178.645-1.1065-1.107 1.1065-1.106 1.1065 1.106z" fill="url(#au)"/><path d="m27.1266 178.645-1.1061-1.107 1.1061-1.106 1.1065 1.106z" fill="url(#av)"/><path d="m33.6329 178.645-1.1065-1.107 1.1065-1.106 1.1065 1.106z" fill="url(#aw)"/><path d="m1.10651 178.645-1.10651-1.107 1.10651-1.106 1.10652 1.106z" fill="url(#ax)"/><path d="m7.6115 169.4-1.10662-1.107 1.10662-1.106 1.1061 1.106z" fill="url(#ay)"/><path d="m14.1163 169.4-1.1065-1.107 1.1065-1.106 1.1066 1.106z" fill="url(#az)"/><path d="m20.6221 169.4-1.1065-1.107 1.1065-1.106 1.1065 1.106z" fill="url(#aA)"/><path d="m27.1266 169.4-1.1061-1.107 1.1061-1.106 1.1065 1.106z" fill="url(#aB)"/><path d="m33.6329 169.4-1.1065-1.107 1.1065-1.106 1.1065 1.106z" fill="url(#aC)"/><path d="m1.10651 169.4-1.10651-1.107 1.10651-1.106 1.10652 1.106z" fill="url(#aD)"/><path d="m7.6115 160.154-1.10662-1.107 1.10662-1.106 1.1061 1.106z" fill="url(#av)"/><path d="m14.1163 160.154-1.1065-1.107 1.1065-1.106 1.1066 1.106z" fill="url(#at)"/><path d="m20.6221 160.154-1.1065-1.107 1.1065-1.106 1.1065 1.106z" fill="url(#aE)"/><path d="m27.1266 160.154-1.1061-1.107 1.1061-1.106 1.1065 1.106z" fill="url(#aF)"/><path d="m33.6329 160.154-1.1065-1.107 1.1065-1.106 1.1065 1.106z" fill="url(#aw)"/><path d="m1.10651 160.154-1.10651-1.107 1.10651-1.106 1.10652 1.106z" fill="url(#aG)"/><path d="m7.6115 150.909-1.10662-1.106 1.10662-1.107 1.1061 1.107z" fill="url(#ay)"/><path d="m14.1163 150.909-1.1065-1.106 1.1065-1.107.9145.915c.0371.092.0727.181.1102.274z" fill="url(#aH)"/><path d="m15.1415 149.885c-.0376-.093-.0731-.182-.1103-.274l.1921.192z" fill="url(#aI)"/><path d="m20.6221 150.909-1.1065-1.106 1.1065-1.107 1.1065 1.107z" fill="url(#aJ)"/><path d="m27.1266 150.909-1.1061-1.106 1.1061-1.107 1.1065 1.107z" fill="url(#aB)"/><path d="m33.6329 150.909-1.1065-1.106 1.1065-1.107 1.1065 1.107z" fill="url(#aC)"/><path d="m1.10651 150.909-1.10651-1.106 1.10651-1.107 1.10652 1.107z" fill="url(#az)"/><path d="m7.6115 141.664-1.10662-1.107 1.10662-1.107 1.1061 1.107z" fill="url(#aK)"/><path d="m14.1163 141.664-1.1065-1.107 1.1065-1.107 1.1066 1.107z" fill="url(#aL)"/><path d="m20.6221 141.664-1.1065-1.107 1.1065-1.107 1.1065 1.107z" fill="url(#aE)"/><path d="m27.1266 141.664-1.1061-1.107 1.1061-1.107 1.1065 1.107z" fill="url(#aF)"/><path d="m33.6329 141.664-1.1065-1.107 1.1065-1.107 1.1065 1.107z" fill="url(#aw)"/><path d="m1.10651 141.664-1.10651-1.107 1.10651-1.107 1.10652 1.107z" fill="url(#ax)"/><path d="m7.6115 224.871-1.10662-1.107 1.10662-1.106 1.1061 1.106z" fill="url(#ap)"/><path d="m14.1163 224.871-1.1065-1.107 1.1065-1.106 1.1066 1.106z" fill="url(#aq)"/><path d="m20.6221 224.871-1.1065-1.107 1.1065-1.106 1.1065 1.106z" fill="url(#Z)"/><path d="m27.1266 224.871-1.1061-1.107 1.1061-1.106 1.1065 1.106z" fill="url(#X)"/><path d="m33.6329 224.871-1.1065-1.107 1.1065-1.106 1.1065 1.106z" fill="url(#aM)"/><path d="m1.10651 224.871-1.10651-1.107 1.10651-1.106 1.10652 1.106z" fill="url(#aN)"/><path d="m7.6115 132.418-1.10662-1.106 1.10662-1.107 1.1061 1.107z" fill="url(#ay)"/><path d="m14.1163 132.418-1.1065-1.106 1.1065-1.107 1.1066 1.107z" fill="url(#aO)"/><path d="m20.6221 132.418-1.1065-1.106 1.1065-1.107 1.1065 1.107z" fill="url(#aJ)"/><path d="m27.1266 132.418-1.1061-1.106 1.1061-1.107 1.1065 1.107z" fill="url(#aP)"/><path d="m33.6329 132.418-1.1065-1.106 1.1065-1.107 1.1065 1.107z" fill="url(#aC)"/><path d="m1.10651 132.418-1.10651-1.106 1.10651-1.107 1.10652 1.107z" fill="url(#aD)"/><path d="m222.532 83.1494-27.424 6.4342 28.11 10.4027-1.125-7.5699 4.066-3.5688-22.439.1175 19.075-2.0343.973-1.6663 1.64-2.8072z" fill="#fbd52e"/><g fill="#fff"><path clip-rule="evenodd" d="m233.717 88.6165-.043.8281c-.459-.0266-.919-.045-1.378-.0593l.028-.8281c.464.0133.929.0338 1.393.0593z" fill-rule="evenodd"/><path clip-rule="evenodd" d="m229.822 88.5123 1.395.0153-.017.8291-1.38-.0164z" fill-rule="evenodd"/><path clip-rule="evenodd" d="m227.325 88.5511 1.399-.0327.01.8291-1.378.0317z" fill-rule="evenodd"/><path clip-rule="evenodd" d="m239.697 90.015.119-.8188 1.383.2188-.141.8168z" fill-rule="evenodd"/><path clip-rule="evenodd" d="m237.328 88.8915c.463.0542.926.0931 1.388.1585l-.103.8229c-.455-.0654-.914-.1043-1.37-.1574z" fill-rule="evenodd"/><path clip-rule="evenodd" d="m236.233 88.7882-.071.827c-.458-.0439-.917-.0756-1.376-.1063l.055-.826c.464.0297.929.0624 1.392.1053z" fill-rule="evenodd"/><path clip-rule="evenodd" d="m247.174 90.9167c.441.1697.888.32 1.322.505l-.318.7657c-.419-.1779-.853-.3241-1.279-.4887z" fill-rule="evenodd"/><path clip-rule="evenodd" d="m246.109 90.5701-.244.7923c-.434-.1462-.878-.2576-1.32-.3762l.211-.8025c.452.1227.907.2371 1.353.3864z" fill-rule="evenodd"/><path clip-rule="evenodd" d="m242.149 90.4372.161-.8127c.46.0797.915.1932 1.372.2944l-.187.8076c-.448-.0992-.894-.2096-1.346-.2893z" fill-rule="evenodd"/><path clip-rule="evenodd" d="m253.129 95.4105.608-.5622c.323.3639.626.7544.912 1.1511l-.69.459c-.262-.3578-.536-.7136-.83-1.0479z" fill-rule="evenodd"/><path clip-rule="evenodd" d="m251.291 93.8445.47-.6829c.398.2668.765.5868 1.148.8781l-.544.6256c-.359-.2709-.699-.5694-1.074-.8208z" fill-rule="evenodd"/><path clip-rule="evenodd" d="m249.186 92.6341.358-.7483 1.264.6655-.417.7166z" fill-rule="evenodd"/><path clip-rule="evenodd" d="m255.928 102.192c-.088.474-.198.943-.298 1.414l-.802-.21c.092-.441.196-.882.28-1.324z" fill-rule="evenodd"/><path clip-rule="evenodd" d="m255.146 99.6724.823-.1012.046.7338c.013.246.043.491.01.733l-.828-.029c.032-.223.002-.446-.01-.669z" fill-rule="evenodd"/><path clip-rule="evenodd" d="m254.735 98.0123-.242-.6205.748-.3558.272.689c.089.2311.19.459.228.7044l-.8.2146c-.033-.2218-.125-.4252-.206-.6317z" fill-rule="evenodd"/><path clip-rule="evenodd" d="m252.999 109.245c-.261.392-.506.796-.799 1.164l-.671-.487c.287-.359.522-.751.776-1.13z" fill-rule="evenodd"/><path clip-rule="evenodd" d="m254.29 107.056-.689 1.241-.713-.423.664-1.195z" fill-rule="evenodd"/><path clip-rule="evenodd" d="m254.498 104.438.783.27-.23.679-.292.65-.759-.333.28-.622z" fill-rule="evenodd"/><path clip-rule="evenodd" d="m248.167 115.06-.998.981-.57-.601.982-.966z" fill-rule="evenodd"/><path clip-rule="evenodd" d="m249.902 113.24-.955 1.028-.599-.573.936-1.008z" fill-rule="evenodd"/><path clip-rule="evenodd" d="m251.517 111.316c-.277.38-.596.723-.893 1.087l-.632-.537c.289-.354.604-.689.872-1.061z" fill-rule="evenodd"/><path clip-rule="evenodd" d="m242.012 119.386.514.651-1.104.851-.504-.659z" fill-rule="evenodd"/><path clip-rule="evenodd" d="m244.462 118.452c-.35.307-.714.596-1.075.888l-.524-.643c.358-.289.719-.574 1.064-.878z" fill-rule="evenodd"/><path clip-rule="evenodd" d="m246.339 116.804c-.344.315-.684.634-1.041.931l-.546-.625c.354-.295.69-.608 1.028-.919z" fill-rule="evenodd"/><path clip-rule="evenodd" d="m235.99 123.754.462.687-1.157.774-.454-.693z" fill-rule="evenodd"/><path clip-rule="evenodd" d="m238.031 122.349.478.677-1.142.798-.47-.684z" fill-rule="evenodd"/><path clip-rule="evenodd" d="m240.033 120.902.495.666-1.126.821-.485-.672z" fill-rule="evenodd"/><path clip-rule="evenodd" d="m229.692 127.729.423.712-1.2.704-.416-.717z" fill-rule="evenodd"/><path clip-rule="evenodd" d="m231.813 126.443.434.706-1.187.724-.428-.71z" fill-rule="evenodd"/><path clip-rule="evenodd" d="m233.903 125.125.448.698-1.173.747-.442-.702z" fill-rule="evenodd"/><path clip-rule="evenodd" d="m223.197 131.378.39.732-1.23.648-.383-.735z" fill-rule="evenodd"/><path clip-rule="evenodd" d="m225.377 130.195.4.725-1.219.667-.395-.728z" fill-rule="evenodd"/><path clip-rule="evenodd" d="m227.532 128.985.412.72-1.209.686-.405-.724z" fill-rule="evenodd"/><path clip-rule="evenodd" d="m215.292 135.317 1.252-.584.355.749-1.261.589z" fill-rule="evenodd"/><path clip-rule="evenodd" d="m218.775 133.65.368.743-1.249.611-.361-.746z" fill-rule="evenodd"/><path clip-rule="evenodd" d="m220.983 132.536.378.738-1.238.629-.373-.741z" fill-rule="evenodd"/><path d="m64.2949 106.087 3.8622 2.112-3.8622 2.112-2.112 3.862-2.112-3.862-3.8629-2.112 3.8629-2.112 2.112-3.862z"/><path d="m73.6547 112.951 2.2357 1.222-2.2357 1.224-1.2237 2.236-1.2226-2.236-2.2357-1.224 2.2357-1.222 1.2226-2.237z"/></g><path d="m102.351 100.831c-.306 1.619-1.632 2.945-3.2515 3.252-2.9165.553-5.4262-1.956-4.8732-4.8726.3067-1.6193 1.6316-2.9452 3.2519-3.2529 2.9168-.553 5.4248 1.9567 4.8728 4.8735zm6.56-2.4946h-1.993c-.463 0-.877-.2965-1.017-.7381-.138-.4304-.312-.8454-.517-1.2411-.214-.414-.133-.9169.196-1.2461l1.412-1.4118c.42-.4201.42-1.102 0-1.5232l-.858-.8577c-.421-.4211-1.103-.4211-1.524 0l-1.412 1.4108c-.329.3291-.832.4099-1.245.1963-.396-.2055-.811-.3793-1.242-.5163-.442-.1401-.7385-.5551-.7385-1.0182v-1.9934c0-.595-.4815-1.0775-1.0774-1.0775h-1.2125c-.596 0-1.0785.4825-1.0785 1.0775v1.9934c0 .4631-.2964.8781-.737 1.0182-.4314.137-.8465.3108-1.2421.5163-.413.2136-.917.1328-1.2451-.1963l-1.4118-1.4108c-.4202-.4211-1.103-.4211-1.5232 0l-.8587.8577c-.4202.4212-.4202 1.1031 0 1.5232l1.4118 1.4118c.3291.3292.4099.8321.1952 1.2461-.2045.3957-.3782.8107-.5152 1.2411-.1421.4416-.5551.7381-1.0192.7381h-1.9925c-.5959 0-1.0774.4825-1.0774 1.0775v1.2121c0 .596.4815 1.079 1.0774 1.079h1.9925c.4641 0 .8771.296 1.0192.738.137.431.3107.845.5152 1.242.2147.412.1339.916-.1952 1.244l-1.4118 1.412c-.4202.421-.4202 1.103 0 1.524l.8587.858c.4202.421 1.103.421 1.5232 0l1.4118-1.412c.3281-.328.8321-.41 1.2451-.195.3966.205.8107.379 1.2421.516.4406.141.737.555.737 1.018v1.994c0 .595.4825 1.077 1.0785 1.077h1.2125c.5959 0 1.0774-.482 1.0774-1.077v-1.994c0-.463.2965-.877.7385-1.018.431-.138.846-.311 1.242-.516.413-.215.916-.133 1.245.195l1.412 1.412c.421.421 1.103.421 1.524 0l.858-.858c.42-.421.42-1.103 0-1.524l-1.412-1.412c-.329-.328-.41-.832-.196-1.244.205-.397.379-.811.517-1.242.14-.442.554-.738 1.017-.738h1.993c.595 0 1.078-.483 1.078-1.079v-1.2121c0-.595-.483-1.0775-1.078-1.0775z" fill="#000"/><path d="m277.03 199.141c.941 1.737 2.971.52 2.971.52s-.117-.57-1.028-1.048c-.678-.357-1.655-.063-2 .062l-1.12-.029h-.017c-.25.012-.496.032-.742.056 3.192-1.128 1.688-4.897 1.688-4.897s-1.003.041-2.064 1.456c-.853 1.135-.518 3.062-.419 3.536-1.273.18-2.503.505-3.678.929.152-.148.307-.312.465-.501 1.217-1.457.68-4.22.68-4.22-4.358.558-3.49 4.657-3.231 5.598-1.424.685-2.745 1.496-3.939 2.343.307-.423.628-1.032.86-1.895.55-2.052-1.296-4.606-1.296-4.606-4.271 2.688-1.199 6.57-.594 7.264-.767.593-1.472 1.188-2.103 1.762-.695.629-1.335 1.257-1.917 1.86.213-.572.391-1.476.22-2.771-.307-2.302-3.243-4.104-3.243-4.104-3.111 4.406 1.341 7.018 2.385 7.55-1.979 2.145-3.123 3.83-3.138 3.853l.385.26c.012-.02.762-1.121 2.092-2.671 1.649 5.223 7.325 2.567 7.325 2.567s-.141-1.424-2.245-2.822c-1.356-.9-3.377-.666-4.465-.446.816-.908 1.796-1.922 2.921-2.939.369-.334.764-.677 1.182-1.023 1.461 4.928 6.734 2.464 6.734 2.464s-.129-1.304-2.053-2.582c-1.21-.803-2.999-.62-4.01-.423 1.22-.957 2.607-1.907 4.129-2.726.903 4.659 5.863 2.781 5.863 2.781s-.027-1.17-1.656-2.438c-1.065-.83-2.76-.75-3.65-.635 1.645-.832 3.436-1.498 5.333-1.854-.078 4.227 4.499 3.409 4.499 3.409s.162-.989-1.01-2.315c-.911-1.03-2.778-1.118-3.331-1.122.666-.118 1.346-.199 2.037-.234z" fill="#f9a726"/><path d="m240.056 224.269s-9.5-21.447-2.626-41.373 23.473-25.749 23.473-25.749-9.853 11.409-4.134 29.203c5.409 16.829-4.905 37.919-4.905 37.919z" fill="#1e8d44"/><path d="m243.417 224.269s-2.433-43.628 7.86-55.103c-9.363 14.464-5.464 55.103-5.464 55.103z" fill="#136c31"/><path d="m259.736 224.269h-10.161c.404-1.79 1.867-7.199 5.513-11.28 4.431-4.956 10.021-4.477 10.021-4.477s-3.041 3.336-3.508 9.33c-.185 2.389-.993 4.629-1.865 6.427z" fill="#1e8d44"/><path d="m236.239 200.548c7.399 9.644 9.058 22.22 9.233 23.721h-14.382c-3.639-3.361-8.099-8.794-8.134-15.33-.062-11.67-5.477-18.589-5.477-18.589s10.882-.073 18.76 10.198z" fill="#f9a726"/><path d="m252.869 224.269h-.762c1.447-3.313 5.137-11.075 8.593-12.654-3.38 2.265-6.489 9.288-7.831 12.654z" fill="#136c31"/><path d="m240.928 224.269h-1.494c-1.751-5.792-7.104-21.918-13.859-27.242 6.977 3.867 13.493 21.766 15.353 27.242z" fill="#fbd52e"/><path d="m222.777 225.97h42.877v-1.701h-42.877z" fill="#f9a726"/><path d="m208.871 105.302-3.862 2.112 3.862 2.112 2.112 3.862 2.113-3.862 3.861-2.112-3.861-2.112-2.113-3.863z" fill="#fff"/><path d="m199.51 112.165-2.236 1.223 2.236 1.223 1.224 2.236 1.222-2.236 2.237-1.223-2.237-1.223-1.222-2.236z" fill="#fff"/><path d="m37.7276 196.532c-.6537-.829-1.4112-1.605-1.8201-2.578-.571-1.359-.381-2.923.0526-4.332.4337-1.409 1.0982-2.743 1.4771-4.167.9325-3.506-.0335-7.455-2.4774-10.135-.5415-.593-1.1524-1.133-1.5989-1.8-1.0374-1.552-1.0442-3.569-.7674-5.415.2767-1.847.7986-3.68.6871-5.543-.1341-2.248-1.2406-4.42-2.9789-5.852-1.7028-1.401-3.9908-1.894-6.1996-1.926v-.002l-.0699.001-.0698-.002v.002c-2.2088.008-4.5025.475-6.2212 1.856-1.7538 1.412-2.8843 3.572-3.0449 5.819-.1321 1.86.3695 3.7.6246 5.549.2556 1.849.2268 3.867-.8286 5.405-.454.665-1.0709 1.195-1.6193 1.783-2.4738 2.652-3.48413 6.591-2.5916 10.105.363 1.43 1.0119 2.771 1.4304 4.185.4177 1.414.5902 2.979.0036 4.332-.4197.97-1.1864 1.737-1.84974 2.558-2.45582 3.04-3.51449 7.597-1.38723 10.876.84982 1.308 2.11487 2.292 3.42697 3.137 2.0378 1.314 4.2816 2.362 6.6584 2.88 1.0419.227 2.1197.432 3.1663.168.698-.176 1.2295-.073 1.9711-.073.7415.008 1.2747-.089 1.9699.095 1.0443.276 2.124.083 3.1683-.133 2.3824-.49 4.6381-1.513 6.6907-2.803 1.3214-.83 2.5976-1.799 3.4621-3.098 2.1644-3.255 1.1569-7.824-1.2646-10.892z" fill="#fbd52e"/><path d="m35.03 193.361-10.2169 10.945-.3626-21.522c1.5403-2.049 7.6612-10.198 7.6612-10.198l-7.6943 8.242-.22-13.078c.6672-.887 5.5346-7.367 5.5346-7.367l-5.5586 5.956-.1545-9.192-.1849 11.792-5.3182-5.829s4.2511 5.794 5.2966 7.219l-.208 13.291-7.6057-8.335s6.1118 8.331 7.5745 10.322l-.3415 21.801-10.386-11.382s9.2787 12.648 10.3433 14.097l-.0499 3.217 1.8265.011-.1089-6.449c1.987-2.642 10.1733-13.541 10.1733-13.541z" fill="#f9a726"/><path d="m24.9924 216.857h-1.8332v-3.517h1.8332z" fill="#9abdd6"/><path d="m15.959 216.9h16.2339l-3.0409 12.835h-10.107z" fill="#000"/><path d="m32.1929 215.926h-16.2339v.974h16.2339z" fill="#464648"/><path d="m88.57 147.594h-.1482l-25.1736 43.926h25.3218zm30.047 51.752c0 2.51-.258 4.418-.775 5.72-.517 1.306-1.219 1.957-2.104 1.957h-8.49v17.275c0 .492-.147.924-.444 1.293-.294.367-.811.677-1.549.922-.738.247-1.698.43-2.88.554-1.181.121-2.7071.185-4.5769.185-1.7716 0-3.261-.064-4.4663-.185-1.2063-.124-2.1662-.307-2.8787-.554-.7146-.245-1.2063-.555-1.4772-.922-.2709-.369-.4059-.801-.4059-1.293v-17.275h-36.543c-.69 0-1.3045-.086-1.8464-.259-.5419-.171-.9963-.564-1.3658-1.18-.3693-.615-.6393-1.502-.8113-2.658-.1733-1.156-.2584-2.695-.2584-4.614 0-1.574.0363-2.94.1106-4.097.073-1.156.1961-2.202.3694-3.139.1713-.934.4169-1.819.7376-2.656.3194-.837.7259-1.723 1.2179-2.657l29.6786-52.344c.2453-.444.6634-.823 1.2543-1.144.5909-.319 1.4149-.591 2.4739-.813 1.0571-.22 2.3993-.381 4.0227-.479 1.6244-.097 3.5923-.147 5.9067-.147 2.5097 0 4.6514.062 6.422.184 1.7712.123 3.1862.321 4.2452.589 1.058.273 1.833.606 2.326.998.491.395.738.861.738 1.403v57.51h8.49c.787 0 1.464.602 2.03 1.809s.849 3.211.849 6.017z" fill="#2b6cad"/><path d="m210.259 146.411h-.148l-25.174 43.926h25.322zm30.047 51.751c0 2.511-.259 4.419-.775 5.722-.516 1.304-1.218 1.956-2.105 1.956h-8.489v17.276c0 .491-.147.923-.443 1.292-.296.368-.812.676-1.55.923-.738.246-1.698.429-2.879.553-1.182.122-2.708.185-4.578.185-1.771 0-3.261-.063-4.466-.185-1.206-.124-2.166-.307-2.879-.553-.714-.247-1.206-.555-1.477-.923-.271-.369-.406-.801-.406-1.292v-17.276h-36.543c-.69 0-1.305-.086-1.846-.26-.542-.17-.997-.562-1.366-1.179-.369-.616-.64-1.502-.812-2.658-.173-1.156-.257-2.695-.257-4.614 0-1.574.035-2.94.109-4.097.074-1.156.196-2.202.37-3.137.172-.936.417-1.821.737-2.658.32-.836.727-1.724 1.219-2.658l29.677-52.343c.246-.443.665-.823 1.256-1.143s1.414-.592 2.474-.813c1.057-.221 2.399-.382 4.022-.481 1.625-.096 3.593-.146 5.906-.146 2.511 0 4.651.061 6.423.184 1.773.123 3.186.321 4.246.591 1.058.271 1.832.603 2.324.996.492.395.739.861.739 1.402v57.511h8.489c.787 0 1.464.602 2.031 1.81.565 1.206.849 3.21.849 6.015z" fill="#2b6cad"/><path d="m166.407 170.723s1.09-1.165 1.186-1.835c.16-1.109 1.081-1.989.963-1.071-.124.966.009.559.392.245s.836-.68.891-1.687c.054-1.008.727-.59.487 1.266-.242 1.854-1.037 1.951-1.443 2.521-.406.568-1.506 1.809-1.506 1.809z" fill="#f6bda6"/><path d="m133.939 166.927s-.311-1.563-.038-2.183c.451-1.028.131-2.26-.253-1.418-.405.886-.302.469-.462 0-.159-.469-.35-1.019.134-1.903.486-.884-.306-.884-1.081.818-.775 1.703-.152 2.204-.107 2.902s.323 2.333.323 2.333z" fill="#f6bda6"/><path d="m115.139 221.76-1.885.8c-.046-.193-.799-2.592-.799-2.592l1.909-.725z" fill="#f6bda6"/><path d="m114.143 222.993s-1.105 6.466-1.12 6.596c-.006.058.013.356.038.671.037.495-.253.94-.701 1.075-.157.048-.286.079-.319.068-.099-.033-3.328-10.803-3.328-10.803s3.399-1.308 3.711-.779c.311.527.448 2.61 1.719 3.172z" fill="#343366"/><path d="m113.513 226.698-1.076-.228-.086.405 1.092.231z" fill="#fff"/><path d="m113.389 227.417-1.029-.216-.087.404 1.045.221z" fill="#fff"/><path d="m113.272 228.098-.99-.209-.088.405 1.007.213z" fill="#fff"/><path d="m161.147 233.077.403 1.933c-.192.007-2.622.26-2.622.26l-.328-1.943z" fill="#f6bda6"/><path d="m162.131 234.253s5.949 2.283 6.071 2.322c.054.016.343.055.646.092.48.059.847.418.891.867.016.158.021.286.005.316l-10.926 1.077s-.6-3.462-.037-3.655c.561-.193 2.572.075 3.35-1.019z" fill="#343366"/><path d="m165.539 235.557-.421.974.37.159.429-.988z" fill="#fff"/><path d="m166.203 235.812-.403.931.37.159.409-.946z" fill="#fff"/><path d="m166.83 236.053-.388.896.369.159.394-.91z" fill="#fff"/><path d="m146.818 180.555h3.903v-5.022h-3.903z" fill="#f6bda6"/><path d="m151.623 178.779 6.287-1.479 8.681-6.856 1.481 1.234-6.595 8.029-8.871 5.031-4.66 14.689-13.47-.919 4.973-15.431-5.108-4.306-2.209-11.885 1.824-.222 3.449 9.746 8.394 2.611.702-.006s2.21 1.803 3.475 1.289c.943-.384.773-1.499.773-1.499z" fill="#f9a726"/><path d="m148.062 199.457 9.565 9.411 4.788 24.232-4.131.458-6.027-20.048-10.944-7.327-8.532 10.888-17.922 5.077-1.315-3.781 15.2-6.895 5.83-13.141" fill="#343366"/><path d="m154.617 170.494c.346-.828.321-1.81-.127-2.59-.447-.78-1.326-1.322-2.241-1.319-.21.001-.426.03-.605.138-.145.087-.255.215-.37.339-.525.566-1.18 1.019-1.901 1.315-.896.367-1.874.489-2.808.748-.539.149-1.096.366-1.428.808-.42.559-.369 1.328-.217 2.004.152.677.152 1.366.277 2.048.095.528.071.543.166 1.178.087.584.278.979.563 1.5.159.291.231 1.351.567 1.382.227.021.163-.816.3-.994.136-.179.204-.398.258-.615.27-1.073.318-2.273 1.054-3.113.407-.465 1.009-.753 1.629-.812.671-.066 1.276.374 1.917.294 1.22-.153 2.512-1.227 2.966-2.311z" fill="#343366"/><path d="m152.5 172.605s.202 4.748-1.26 5.489c-1.463.74-3.423-.458-4.097-.963-.674-.506-1.079-1.584-1.079-1.584s-.508-.763-.487-1.332c.02-.57.051-1.308.589-.946.854.575.453.145.453.145s-.321-.583.329-1.28c.649-.7 5.535-2.111 5.552.471z" fill="#f6bda6"/><path d="m57.8149 202.192s-6.4324 9.793-5.4998 12.071c.9328 2.279 4.4899 5.745 4.4899 5.745l2.6635-1.006s-2.4059-3.996-2.2134-4.818c.1945-.832 2.5466-5.433 2.5466-5.433z" fill="#5750ac"/><path d="m74.29 202.148s6.2717 9.772 5.3384 12.036c-.9323 2.264-4.3284 5.673-4.3284 5.673l-2.664-.997s2.1182-4.457 2.2449-4.874c.2474-.816-2.5782-5.316-2.5782-5.316z" fill="#5750ac"/><path d="m74.3897 202.323c-.4723-.97-6.6019-2.274-6.6019-2.274s-1.0089 1.203-1.1265 1.203c-.0838 0-.4212 1.38-.6103 2.182-.1912-.802-.5336-2.18-.6175-2.179-.1175 0-1.1408-1.046-1.1408-1.046s-6.1149 1.174-6.5837 2.145c-.4684.971.7066 21.271 1.3741 21.668.6676.399 3.6506 1.159 4.5921 1.671.7882.428 2.0292.139 2.4187.031.3895.107 1.2186-.257 2.0047-.688.9405-.516 4.2609-1.276 4.9264-1.677.6665-.402 1.837-20.068 1.3647-21.036z" fill="#5750ac"/><path d="m55.0785 219.118s-3.3584-1.417-5.0379-.694c-1.6792.724-2.9243 3.648-1.1872 5.414 1.7378 1.766 16.0398 7.122 17.2849 7.499 1.2442.376 4.3427.346 4.3427.346l.6655-2.634s-10.8566-7.643-16.068-9.931z" fill="#343366"/><path d="m76.119 219.118s3.3581-1.417 5.0377-.694c1.6786.724 2.9238 3.648 1.1869 5.414-1.7379 1.766-16.0395 7.122-17.2847 7.499-1.2441.376-4.3426.346-4.3426.346l-.6655-2.634s10.8566-7.643 16.0682-9.931z" fill="#343366"/><path d="m55.2569 227.473s-.609-.496-1.1281-.496c-.5187 0-.8574.609-1.1277 1.488-.2708.879-.4065 3.587-.0679 3.857.3382.271 1.5794.09 1.5794.09z" fill="#343366"/><path d="m60.6492 231.42s-3.4745-.135-4.2412.18c-.7671.316-1.9627 1.219-2.2559.565-.2935-.654-.0179-5.225 1.1054-4.692.611.29 1.5338.676 2.3684 1.059.8346.384 2.4253.517 2.4253.517z" fill="#9d93d1"/><path d="m75.8789 227.473s.6093-.496 1.1286-.496c.5183 0 .8567.609 1.1276 1.488s.4058 3.587.0674 3.857c-.3383.271-1.5794.09-1.5794.09z" fill="#343366"/><path d="m70.4883 231.42s3.4737-.135 4.2404.18c.7667.316 1.9628 1.219 2.2562.565.2933-.654.0184-5.225-1.1061-4.692-.6103.29-1.5335.676-2.3676 1.059-.8352.384-2.4259.517-2.4259.517z" fill="#9d93d1"/><path d="m75.2481 223.333h-19.4993c-.3894 0-.712-.301-.7372-.69l-.6916-10.586c-.0279-.427.3098-.787.7367-.787h20.8558c.4263 0 .7637.359.7371.785l-.6645 10.586c-.0245.39-.3476.692-.737.692z" fill="#f5f6f5"/><path d="m70.3858 197.207c-.0174-.119-.0531-.255-.1625-.305l-.1247-.02c-.2035.007-.3977.169-.55.305.003-.225.0041-.364.0041-.364.0807-1.81-3.4758-1.705-3.5054-1.698-.0287-.007-3.5852-.112-3.5044 1.698 0 0 .001.139.0041.364-.1523-.136-.3466-.298-.55-.305l-.1247.02c-.1094.05-.1452.186-.1626.305-.0613.396-.0746.801.0113 1.193.0848.391.2729.766.5684 1.035.1053.095.2279.176.3629.216.0409.499.0961.929.1727 1.152.2617.771 1.832 2.513 3.2223 2.569h.001c1.3903-.056 2.9605-1.798 3.2222-2.569.0767-.223.1319-.653.1728-1.152.1349-.04.2576-.121.3629-.216.2954-.269.4835-.644.5684-1.035.0858-.392.0726-.797.0112-1.193z" fill="#f2596f"/><path d="m70.2584 196.988c.0532-.321.0664-.729.1084-1.052.0429-.333.0797-.674.0143-1.004-.046-.228-.1401-.443-.2341-.656-.2219-.497-.4652-.999-.8618-1.369-.5766-.538-1.3944-.721-2.1795-.808-1.3893-.154-2.8133-.071-4.1689-.412-.3762-.094-.7166-.393-1.0151-.64-.1881-.158-.413-.345-.6471-.273-.2116.063-.3067.313-.3169.531-.0255.523.2515 1.009.3537 1.52.0593.293.0603.595.1247.887.0644.29.2065.585.4662.733-.1912-.101-.3823-.201-.5735-.3.0613.403.231.789.4886 1.106.0696.086.134.24.0317.283l-.0766.028v.126c.2054.463.4375.914.6951 1.35.0818.14.0194.247.182.243.1523-.005.4355-.099.5183-.226.3087-.469.6992-.962 1.2543-1.048.2525-.039.5091.012.7626.042.4151.048.8363.038 1.2493-.03.3148-.052.6317-.138.9486-.098.3364.044.6369.227.917.418.3404.233.6676.486.9773.758l.1738.105c.1533.028.2862-.055.3966-.165s.365-.197.411-.049z" fill="#100f0d"/><path d="m151.884 155.053c4.985.318 8.998-1.375 12.041-5.087 3.041-3.711 4.783-9.05 5.228-16.015s-.612-12.5-3.171-16.599c-2.559-4.103-6.313-6.313-11.268-6.629-4.923-.314-8.923 1.417-11.998 5.192-3.077 3.774-4.835 9.112-5.275 16.012s.618 12.401 3.175 16.501c2.559 4.102 6.315 6.309 11.268 6.625zm15.963 11.462c-2.417 1.283-5.051 2.21-7.907 2.781-2.855.568-5.853.753-8.993.552-9.63-.615-17.122-4.458-22.475-11.532-5.352-7.074-7.673-16.21-6.958-27.406.39-6.119 1.622-11.539 3.698-16.26 2.075-4.721 4.971-8.679 8.69-11.872 2.982-2.555 6.29-4.4037 9.924-5.5443s7.576-1.5739 11.832-1.3022c9.598.6126 17.081 4.4725 22.445 11.5815 5.365 7.106 7.689 16.256 6.975 27.455-.299 4.687-1.052 8.895-2.258 12.624-1.209 3.733-2.919 7.062-5.137 9.991 1.697 1.905 3.581 3.458 5.654 4.651 2.076 1.194 4.325 2.017 6.749 2.466l-5.509 12.295c-3.534-.619-6.706-1.809-9.515-3.573-2.811-1.767-5.215-4.068-7.215-6.907z" fill="#1e8d44"/></g></svg>