<svg fill="none" height="38" viewBox="0 0 134 38" width="134" xmlns="http://www.w3.org/2000/svg"><path d="m133.328 31.968c-3.408-.576-4.608-1.248-6.576-3.024 1.296-2.16 3.36-5.472 3.36-11.28 0-9.456-6.336-17.664-17.136-17.664-10.416 0-16.8481 7.92-16.8481 17.808 0 4.368 1.248 9.792 5.0401 13.488 2.928 2.832 7.296 4.56 11.856 4.56 3.6 0 5.808-1.056 8.544-2.352 4.464 3.36 5.664 3.792 9.312 4.464zm-20.784-24.816c1.824-.096 5.232.336 7.248 3.504.816 1.248 1.92 3.984 1.92 7.152 0 5.856-2.784 10.896-8.496 10.896-5.136 0-8.64-4.128-8.64-10.944 0-4.608 1.92-10.272 7.968-10.608z" fill="#1e8d44"/><g fill="#2b6cad"><path d="m24.144 23.8639c-1.152 1.968-2.928 5.04-7.344 5.04-4.56 0-8.352-3.696-8.352-11.136 0-5.664 2.88-10.75199 8.352-10.75199 1.392 0 3.024.384 4.656 1.68 1.488 1.248 2.064 2.39999 2.544 3.50399l6.72-3.35999c-.96-1.68-2.064-3.552-4.416-5.424-2.544-2.016-6-3.3600018-9.888-3.3600018-9.6 0-16.416 7.9200018-16.416 17.9519918 0 11.472 7.248 18 16.224 18 4.704 0 8.016-1.968 9.456-2.976 2.688-1.872 3.888-3.792 5.136-5.76z"/><path d="m30.5734 7.78391h8.832v27.21599h8.496v-27.21599h8.784v-6.72h-26.112z"/><path d="m85.773 32.4079c3.744-3.024 6.432-8.304 6.432-14.16 0-2.304-.672-13.58399-11.04-17.18399-2.064-.720003-4.176-1.0080018-6.192-1.0080018-10.896 0-16.704 8.6880018-16.704 17.8559918 0 9.792 6.096 18.048 16.848 18.048 3.504 0 7.344-.816 10.656-3.552zm-2.064-13.584c-.24 7.104-4.56 9.984-8.592 9.984-3.984 0-8.496-2.976-8.496-11.04 0-6.144 3.264-10.65599 8.4-10.65599 2.304 0 4.512.96 5.952 2.496 1.92 2.06399 2.88 5.66399 2.736 9.21599z"/></g></svg>