<svg fill="none" height="64" viewBox="0 0 210 64" width="210" xmlns="http://www.w3.org/2000/svg" xmlns:xlink="http://www.w3.org/1999/xlink"><clipPath id="a"><path d="m0 0h209.067v64h-209.067z"/></clipPath><g clip-path="url(#a)"><g fill="#2b6cad"><path d="m14.4409 1.33032h-13.996076v57.25028h13.996076z"/><path d="m23.6307 16.0183v42.5623h12.8007v-25.0628c0-3.0606.5454-5.2183 1.6362-6.4732 1.0908-1.2526 2.9201-1.8811 5.488-1.8811 2.1816 0 3.7746.6743 4.7836 2.0205 1.0089 1.3463 1.5111 3.4583 1.5111 6.3338v25.0628h12.8031v-25.696c0-6.0434-1.1249-10.5326-3.3769-13.4606-2.2497-2.9302-5.6789-4.3954-10.2897-4.3954-2.5792 0-4.9062.4092-6.9787 1.2274-2.0702.8183-3.9291 2.0595-5.5767 3.7212v-3.9589z"/><path d="m72.016 24.848v33.7326h12.803v-33.7326h7.9445v-7.8011h-7.9445v-1.6229c0-1.7417.375-2.9028 1.1317-3.4834.7545-.5806 2.3111-.8708 4.6722-.8708h2.1406v-8.90976c-1.2316-.29029-2.4133-.50057-3.5473-.63315-1.1339-.13257-2.2497-.19657-3.3405-.19657-4.9767 0-8.5581.99657-10.7442 2.98743-2.1861 1.99314-3.2792 5.248-3.2792 9.76005 0 .3177.0046.672.0205 1.0697.0136.3954.0613 1.0285.1432 1.8994h-6.5038v7.8011z"/><path clip-rule="evenodd" d="m99.3264 53.7486c4.1856 4.1463 9.7076 6.2172 16.5706 6.2172 6.859 0 12.397-2.0778 16.607-6.2355 4.214-4.1577 6.32-9.6274 6.32-16.4114 0-6.8114-2.093-12.2926-6.279-16.4503-4.183-4.1577-9.735-6.2354-16.648-6.2354-6.835 0-12.351 2.0846-16.5478 6.2537-4.1995 4.1714-6.2993 9.648-6.2993 16.432 0 6.8091 2.0929 12.288 6.2765 16.4297zm9.4696-7.184c-1.77-2.2834-2.657-5.3646-2.657-9.2457 0-3.8263.893-6.9029 2.677-9.2251 1.784-2.3223 4.143-3.4835 7.081-3.4835 2.989 0 5.37 1.1475 7.14 3.4446 1.771 2.2949 2.655 5.3829 2.655 9.264 0 3.8537-.891 6.928-2.675 9.2251-1.784 2.2972-4.156 3.4446-7.12 3.4446-2.965 0-5.331-1.1406-7.101-3.424z" fill-rule="evenodd"/></g><path d="m172.771 47.9678c4.535 0 8.074-1.5748 10.617-4.7291 2.54-3.1543 3.81-7.5566 3.81-13.2046s-1.277-10.064-3.833-13.2434c-2.557-3.1817-6.086-4.7726-10.594-4.7726-4.479 0-8.004 1.6046-10.572 4.8115-2.57 3.2068-3.854 7.6091-3.854 13.2045 0 5.5955 1.277 9.984 3.831 13.1635 2.557 3.1817 6.088 4.7702 10.595 4.7702zm15.127 8.4343c-2.115 1.1612-4.449 2.0457-7.003 2.6537-2.555.6057-5.261.9097-8.118.9097-8.762 0-15.773-2.7177-21.033-8.1554-5.259-5.4377-7.89-12.6971-7.89-21.776 0-4.9623.802-9.4034 2.411-13.3234 1.606-3.92 4.001-7.26628 7.187-10.03657 2.555-2.21714 5.445-3.88114 8.672-4.98971 3.227-1.108572 6.774-1.6617149 10.647-1.6617149 8.733 0 15.736 2.7314249 21.009 8.1965649 5.272 5.46283 7.908 12.73373 7.908 21.81483 0 3.8012-.439 7.2389-1.316 10.3132-.879 3.0765-2.236 5.8537-4.077 8.3337 1.648 1.4514 3.445 2.608 5.393 3.4651 1.949.8572 4.036 1.4057 6.258 1.6435l-4.281 10.2148c-3.239-.3177-6.181-1.1154-8.829-2.3954-2.649-1.2823-4.961-3.0172-6.938-5.2069z" fill="#1e8d44"/></g></svg>