<svg fill="none" height="89" viewBox="0 0 210 89" width="210" xmlns="http://www.w3.org/2000/svg" xmlns:xlink="http://www.w3.org/1999/xlink"><clipPath id="a"><path d="m.0668945 0h209.0001055v88.2254h-209.0001055z"/></clipPath><g clip-path="url(#a)"><path d="m44.1722 57.1763c-2.1134 1.1899-4.4412 2.0667-6.9832 2.6929-2.5423.6261-5.2374.908-8.0858.908-8.7289 0-15.7121-2.7553-20.94955-8.2663-5.23748-5.5109-7.871423-12.8696-7.871423-22.0755 0-5.0409.796223-9.5189 2.389073-13.4953 1.59245-3.9768 3.98153-7.35864 7.16683-10.17678 2.54227-2.25443 5.42117-3.94477 8.63687-5.04095 3.2169-1.127414 6.7695-1.69112 10.6286-1.69112 8.6984 0 15.6816 2.75568 20.9499 8.29788 5.2679 5.54217 7.8714 12.90077 7.8714 22.10627 0 3.8515-.4289 7.3274-1.3172 10.4583-.8882 3.1316-2.2358 5.9181-4.0735 8.4544 1.654 1.4717 3.4305 2.6304 5.3599 3.5072 1.9297.8767 4.0123 1.4092 6.2481 1.6594l-4.2572 10.3646c-3.2161-.3131-6.1561-1.1274-8.7904-2.4426-2.634-1.2836-4.9614-3.0372-6.922-5.2604zm-15.069-8.5481c4.5332 0 8.0554-1.597 10.5669-4.7911 2.5424-3.1937 3.7979-7.6401 3.7979-13.3704 0-5.73-1.2867-10.2076-3.8287-13.4017-2.5423-3.2561-6.0645-4.8532-10.5357-4.8532-4.4721 0-7.9635 1.6279-10.5362 4.8848-2.5731 3.2249-3.8595 7.703-3.8595 13.3705s1.2868 10.1135 3.8287 13.3392c2.5423 3.2245 6.0645 4.8219 10.567 4.8219z" fill="#1e8d44"/><path d="m116.301 46.0607c-2.726 4.9469-6.156 8.6418-10.23 11.1156-4.104 2.4739-8.8513 3.695-14.3037 3.695-8.5756 0-15.3751-2.7557-20.3981-8.2354-5.0535-5.4794-7.5958-12.8692-7.5958-22.1688 0-9.1122 2.634-16.4705 7.9019-22.04388 5.2679-5.57381 12.1902-8.36072 20.7658-8.36072 5.3908 0 10.0769 1.25272 14.0589 3.75778 3.981 2.50466 7.075 6.13674 9.28 10.89662l-10.995 5.6363c-1.287-2.7873-2.971-4.8848-5.0846-6.3253-2.1134-1.4405-4.5633-2.1604-7.3505-2.1604-4.3492 0-7.7798 1.6591-10.3217 4.9473-2.5423 3.2878-3.7979 7.8278-3.7979 13.6207 0 5.8244 1.2556 10.3645 3.7671 13.5898 2.5115 3.2249 6.0033 4.8219 10.5362 4.8219 2.8484 0 5.2986-.689 7.3812-2.0354 2.0832-1.3776 3.8292-3.4131 5.2072-6.1683l11.179 5.4168zm25.084 14.7165c-6.83 0-12.343-2.0979-16.508-6.2937-4.166-4.1958-6.248-9.7383-6.248-16.6582 0-6.8574 2.082-12.4308 6.278-16.6582 4.196-4.227 9.679-6.3249 16.509-6.3249 6.891 0 12.434 2.0979 16.6 6.3249 4.166 4.2274 6.248 9.7696 6.248 16.6582s-2.113 12.4308-6.31 16.627c-4.195 4.227-9.709 6.3249-16.569 6.3249zm-9.709-22.9519c0 3.9452.888 7.0452 2.634 9.3624 1.777 2.3169 4.135 3.4756 7.075 3.4756 2.971 0 5.329-1.1587 7.106-3.4756 1.776-2.3172 2.665-5.4485 2.665-9.3624s-.889-7.0451-2.635-9.3936c-1.776-2.3173-4.134-3.4756-7.105-3.4756-2.94 0-5.268 1.1899-7.045 3.538-1.807 2.3485-2.695 5.4797-2.695 9.3312zm38.163 21.543v-43.1172h12.772v4.008c1.654-1.6907 3.491-2.9435 5.544-3.7574 2.051-.8143 4.379-1.2527 6.952-1.2527 4.594 0 8.025 1.4717 10.26 4.4464 2.236 2.9747 3.369 7.5148 3.369 13.6523v26.0206h-12.771v-25.3941c0-2.9122-.49-5.0417-1.501-6.4193-1.01-1.3781-2.603-2.0355-4.778-2.0355-2.573 0-4.379.6266-5.482 1.9102-1.103 1.2839-1.623 3.4443-1.623 6.5442v25.3941h-12.742z" fill="#2b6cad"/><path d="m148.332 85.9686h-4.383v-17.7317h4.383zm2.818 0v-13.0734h4.006v1.2153c.518-.5126 1.095-.8924 1.748-1.1391.643-.2468 1.373-.3799 2.181-.3799 1.44 0 2.516.4462 3.218 1.348.701.9018 1.056 2.2786 1.056 4.1396v7.8891h-4.005v-7.699c0-.8831-.154-1.5284-.471-1.9461s-.817-.6171-1.499-.6171c-.807 0-1.374.1897-1.719.5789-.337.3892-.509 1.0442-.509 1.9843v7.6994zm15.169 0v-10.4461h-2.02v-2.4126h2.019c-.028-.2681-.037-.4692-.047-.5843 0-.1242-.009-.2296-.009-.335 0-1.3975.343-2.4032 1.019-3.0254.677-.6129 1.792-.9291 3.336-.9291.343 0 .686.0195 1.038.0578.353.0382.715.1054 1.096.201v2.7576h-.667c-.734 0-1.21.0859-1.448.2678-.239.1819-.353.5364-.353 1.0822v.5074h2.468v2.4126h-2.458v10.4457h-3.974zm13.618.933c-2.157 0-3.897-.6535-5.213-1.9605-1.315-1.307-1.973-3.0336-1.973-5.1893 0-2.1361.658-3.8725 1.983-5.1893 1.315-1.3073 3.056-1.9706 5.203-1.9706 2.176 0 3.927.6535 5.242 1.9706 1.315 1.3168 1.973 3.0434 1.973 5.1893 0 2.1362-.667 3.8628-1.992 5.1796-1.316 1.3167-3.056 1.9702-5.223 1.9702zm-3.066-7.1498c0 1.2289.281 2.1947.832 2.9162.561.7222 1.306 1.0832 2.234 1.0832s1.683-.3611 2.244-1.0829c.561-.7222.841-1.6973.841-2.9067 0-1.2293-.28-2.1947-.831-2.9263-.561-.7222-1.306-1.0829-2.244-1.0829-.928 0-1.664.3709-2.225 1.1024-.57.7218-.851 1.697-.851 2.8966z" fill="#2b6cad"/><path d="m202.811 85.4702c-.663.3653-1.394.6343-2.191.8268-.798.192-1.643.2787-2.537.2787-2.739 0-4.93-.8459-6.583-2.5378-1.643-1.6919-2.47-3.9511-2.47-6.7774 0-1.5478.25-2.9228.75-4.1435.5-1.2211 1.249-2.2591 2.249-3.1242.792-.6906 1.713-1.2167 2.71-1.5478 1.008-.3463 2.123-.5192 3.334-.5192 2.729 0 4.92.8459 6.573 2.5476 1.653 1.7016 2.469 3.9608 2.469 6.7871 0 1.1825-.134 2.2494-.413 3.2109-.266.9351-.699 1.8144-1.278 2.5956.504.4413 1.07.8042 1.682 1.0766.605.2694 1.259.4326 1.96.5095l-1.335 3.182c-1.009-.0961-1.932-.3463-2.758-.7496-.821-.3897-1.556-.9388-2.162-1.6153zm-4.738-2.6246c1.422 0 2.528-.4903 3.316-1.4709.797-.9802 1.191-2.3454 1.191-4.1048 0-1.7591-.403-3.134-1.201-4.1146-.798-.99-1.903-1.4803-3.315-1.4803-1.404 0-2.499.4997-3.306 1.4998-.807.9994-1.201 2.3649-1.201 4.1048s.403 3.1051 1.201 4.0951c.807.9806 1.912 1.4709 3.315 1.4709z" fill="#1e8d44"/><path d="m129.81 85.9862c-.868 0-1.594-.4005-1.965-1.0868h-.091v.9837h-1.183v-8.6578h1.229v3.4198h.096c.332-.6805 1.063-1.0923 1.914-1.0923 1.576 0 2.57 1.2351 2.57 3.214 0 1.9725-.999 3.2194-2.57 3.2194zm-.354-5.3298c-1.029 0-1.674.812-1.68 2.1158.006 1.3039.646 2.1104 1.68 2.1104 1.039 0 1.662-.7952 1.662-2.1158 0-1.3098-.623-2.1104-1.662-2.1104zm4.704 7.4855c-.103 0-.394-.0117-.508-.0285v-1.0579c.097.0171.285.023.4.023.582 0 .914-.2405 1.125-.8694l.091-.3029-2.25-6.2504h1.336l1.56 4.9461h.097l1.553-4.9461h1.303l-2.319 6.4846c-.532 1.5154-1.12 2.0015-2.388 2.0015z" fill="#000"/></g></svg>