<svg fill="none" height="350" viewBox="0 0 540 350" width="540" xmlns="http://www.w3.org/2000/svg"><rect fill="#cce5ff" height="52" rx="4" width="53" x="480" y="178"/><rect fill="#cce5ff" height="52" rx="4" width="53" x="240"/><rect fill="#cce5ff" height="52" rx="4" width="53" x="360" y="59"/><rect fill="#cce5ff" height="52" rx="4" width="53" x="420" y="238"/><rect fill="#cce5ff" height="52" rx="4" width="53" x="420" y="118"/><g fill="#e2f0ff"><rect height="52" rx="4" width="53" x="240" y="59"/><rect height="52" rx="4" width="53" x="360" y="118"/><rect height="52" rx="4" width="53" x="360" y="238"/><rect height="52" rx="4" width="53" x="420" y="178"/><rect height="52" rx="4" width="53" x="360"/><rect height="52" rx="4" width="53" x="360" y="178"/><rect height="52" rx="4" width="53" x="360" y="298"/><rect height="52" rx="4" width="53" x="480" y="238"/></g><rect fill="#ebf5ff" height="52" rx="4" width="53" x="300"/><rect fill="#ebf5ff" height="52" rx="4" width="53" x="300" y="178"/><rect fill="#ebf5ff" height="52" rx="4" width="53" x="480" y="118"/><rect fill="#cce5ff" height="52" rx="4" width="53" x="240" y="178"/><rect fill="#cce5ff" height="52" rx="4" width="53"/><rect fill="#cce5ff" height="52" rx="4" width="53" x="120" y="59"/><rect fill="#cce5ff" height="52" rx="4" width="53" x="180" y="238"/><rect fill="#cce5ff" height="52" rx="4" width="53" x="180" y="118"/><rect fill="#cce5ff" height="52" rx="4" width="53" x="300" y="238"/><rect fill="#e2f0ff" height="52" rx="4" width="53" y="59"/><rect fill="#e2f0ff" height="52" rx="4" width="53" x="120" y="118"/><rect fill="#e2f0ff" height="52" rx="4" width="53" x="180" y="178"/><rect fill="#e2f0ff" height="52" rx="4" width="53" x="120"/><rect fill="#e2f0ff" height="52" rx="4" width="53" x="300" y="118"/><rect fill="#e2f0ff" height="52" rx="4" width="53" x="240" y="238"/><rect fill="#ebf5ff" height="52" rx="4" width="53" x="60"/><rect fill="#ebf5ff" height="52" rx="4" width="53" x="240" y="118"/></svg>