<svg fill="none" height="350" viewBox="0 0 540 350" width="540" xmlns="http://www.w3.org/2000/svg"><rect fill="#cce5ff" height="52" rx="4" transform="matrix(-1 0 0 1 60 178)" width="53"/><rect fill="#cce5ff" height="52" rx="4" transform="matrix(-1 0 0 1 300 0)" width="53"/><rect fill="#cce5ff" height="52" rx="4" transform="matrix(-1 0 0 1 180 59)" width="53"/><rect fill="#cce5ff" height="52" rx="4" transform="matrix(-1 0 0 1 120 238)" width="53"/><rect fill="#cce5ff" height="52" rx="4" transform="matrix(-1 0 0 1 120 118)" width="53"/><g fill="#e2f0ff"><rect height="52" rx="4" transform="matrix(-1 0 0 1 300 59)" width="53"/><rect height="52" rx="4" transform="matrix(-1 0 0 1 180 118)" width="53"/><rect height="52" rx="4" transform="matrix(-1 0 0 1 180 238)" width="53"/><rect height="52" rx="4" transform="matrix(-1 0 0 1 120 178)" width="53"/><rect height="52" rx="4" transform="matrix(-1 0 0 1 180 0)" width="53"/><rect height="52" rx="4" transform="matrix(-1 0 0 1 180 178)" width="53"/><rect height="52" rx="4" transform="matrix(-1 0 0 1 180 298)" width="53"/><rect height="52" rx="4" transform="matrix(-1 0 0 1 60 238)" width="53"/></g><rect fill="#ebf5ff" height="52" rx="4" transform="matrix(-1 0 0 1 240 0)" width="53"/><rect fill="#ebf5ff" height="52" rx="4" transform="matrix(-1 0 0 1 240 178)" width="53"/><rect fill="#ebf5ff" height="52" rx="4" transform="matrix(-1 0 0 1 60 118)" width="53"/><rect fill="#cce5ff" height="52" rx="4" transform="matrix(-1 0 0 1 300 178)" width="53"/><rect fill="#cce5ff" height="52" rx="4" transform="matrix(-1 0 0 1 540 0)" width="53"/><rect fill="#cce5ff" height="52" rx="4" transform="matrix(-1 0 0 1 420 59)" width="53"/><rect fill="#cce5ff" height="52" rx="4" transform="matrix(-1 0 0 1 360 238)" width="53"/><rect fill="#cce5ff" height="52" rx="4" transform="matrix(-1 0 0 1 360 118)" width="53"/><rect fill="#cce5ff" height="52" rx="4" transform="matrix(-1 0 0 1 240 238)" width="53"/><rect fill="#e2f0ff" height="52" rx="4" transform="matrix(-1 0 0 1 540 59)" width="53"/><rect fill="#e2f0ff" height="52" rx="4" transform="matrix(-1 0 0 1 420 118)" width="53"/><rect fill="#e2f0ff" height="52" rx="4" transform="matrix(-1 0 0 1 360 178)" width="53"/><rect fill="#e2f0ff" height="52" rx="4" transform="matrix(-1 0 0 1 420 0)" width="53"/><rect fill="#e2f0ff" height="52" rx="4" transform="matrix(-1 0 0 1 240 118)" width="53"/><rect fill="#e2f0ff" height="52" rx="4" transform="matrix(-1 0 0 1 300 238)" width="53"/><rect fill="#ebf5ff" height="52" rx="4" transform="matrix(-1 0 0 1 480 0)" width="53"/><rect fill="#ebf5ff" height="52" rx="4" transform="matrix(-1 0 0 1 300 118)" width="53"/></svg>